Coordinates
version=1
nRows=9
nColumns=36
inDegrees=yes

Units are S.I. units (second, meters, Newtons, ...)
If the header above contains a line with 'inDegrees', this indicates whether rotational values are in degrees (yes) or radians (no).

endheader
time	pelvis_tilt	pelvis_list	pelvis_rotation	pelvis_tx	pelvis_ty	pelvis_tz	hip_flexion_r	hip_adduction_r	hip_rotation_r	knee_angle_r	knee_angle_r_beta	ankle_angle_r	subtalar_angle_r	mtp_angle_r	hip_flexion_l	hip_adduction_l	hip_rotation_l	knee_angle_l	knee_angle_l_beta	ankle_angle_l	subtalar_angle_l	mtp_angle_l	lumbar_extension	lumbar_bending	lumbar_rotation	arm_flex_r	arm_add_r	arm_rot_r	elbow_flex_r	pro_sup_r	arm_flex_l	arm_add_l	arm_rot_l	elbow_flex_l	pro_sup_l
      2.83333330	    -14.47023941	      1.31059784	      1.05398024	      0.84191747	      1.36581741	     -0.37004252	     15.50630768	     -2.47872995	      5.42559308	     38.17362828	      0.66625550	    -10.87829293	    -15.15917000	     -7.49999987	     20.07802336	     -1.16577427	      0.66902599	     46.65270587	      0.81424332	     -1.34014577	     -1.63891210	     -7.49999987	      2.26297802	     -4.00645095	     -8.78079833	    -20.64121776	    -42.87290923	    -15.01706140	     76.68513958	     83.35327039	    -29.05049344	    -35.09854289	    -33.49637219	     71.63679243	     86.75680033
      2.85000000	    -14.16160121	      1.72616429	      0.42544841	      0.87515142	      1.35979417	     -0.37438886	     16.72579086	     -2.81723736	      5.74080948	     40.23366751	      0.70220997	    -12.65500454	    -13.45577467	     -7.49999987	     20.06622630	     -1.11040191	      0.37902807	     46.48166223	      0.81125805	     -2.83177357	     -2.18449577	     -7.49999987	      2.17478487	     -4.45305769	     -8.16728149	    -22.91079221	    -42.22935530	    -14.14245841	     74.97308216	     82.84289731	    -30.70826834	    -33.22838637	    -33.15956492	     70.87931207	     86.18729315
      2.86666670	    -13.96638283	      1.70634619	      0.11793623	      0.88093047	      1.34864927	     -0.37758461	     17.88307133	     -3.06008431	      4.86229713	     40.15198079	      0.70078427	    -13.23414261	    -11.29757877	     -7.49999987	     21.08327695	     -1.51184892	      0.15313816	     45.37190649	      0.79188916	     -3.38854552	     -2.05439706	     -7.49999987	      1.94837158	     -4.28425287	     -7.65656782	    -24.49187731	    -42.48957947	    -13.20239671	     73.91123299	     82.48147115	    -32.13650548	    -31.50803645	    -32.21380743	     71.03745409	     85.98560763
      2.88333330	    -13.89921017	      1.90028003	      0.02738960	      0.89510209	      1.33934135	     -0.37856484	     17.68680303	     -3.61441369	      3.98730460	     36.43147225	      0.63584914	    -13.68374162	     -8.98002298	     -7.49999987	     21.92193377	     -1.70968665	     -0.41243832	     43.37125223	      0.75697115	     -6.40249824	     -2.53913871	     -7.49999987	      1.41816439	     -4.40465654	     -7.60116241	    -25.33030292	    -42.75021807	    -11.98756985	     72.90911235	     82.50882437	    -32.97604134	    -30.18329352	    -30.82390437	     70.03252865	     86.42878427
      2.90000000	    -14.04147039	      1.41269448	     -0.13639689	      0.90090490	      1.32498432	     -0.37643766	     20.07415459	     -3.28327901	      2.75724709	     34.78661189	      0.60714091	    -14.00436051	     -9.03583818	     -7.49999987	     23.33076330	     -2.53933152	     -0.91946993	     40.70528810	      0.71044130	     -7.32573124	     -2.56289911	     -7.49999987	     -0.00836185	     -3.68898648	     -7.45032971	    -25.58819756	    -42.34485243	    -11.37355710	     72.49959681	     82.41556740	    -32.81092149	    -28.75093703	    -29.90339582	     70.23157394	     86.42716663
      2.91666670	    -14.85049214	      1.17236990	     -0.05832230	      0.91479231	      1.30278472	     -0.37215278	     22.27522990	     -3.00269214	      2.19500834	     31.93561905	      0.55738170	    -14.73294651	     -8.01073631	     -7.49999987	     26.35929510	     -3.13782320	     -0.62112745	     39.73722765	      0.69354546	    -10.84010172	     -4.48820695	     -7.49999987	     -0.53159614	     -3.44282681	     -6.85966794	    -27.03682677	    -43.45524105	     -9.21699312	     72.79745131	     82.15313330	    -33.99778111	    -29.13189082	    -27.84707625	     71.86861329	     87.06017239
      2.93333330	    -15.16415803	      1.14609919	      0.48655228	      0.93246540	      1.29245547	     -0.37107908	     23.31848184	     -3.22553082	      1.30565918	     27.65202991	      0.48261897	    -14.96327391	     -5.78217935	     -7.49999987	     27.73992634	     -3.62675903	     -1.20977309	     36.79303916	      0.64215968	    -12.91072169	     -4.71438728	     -7.49999987	     -1.96747132	     -3.64364507	     -6.75340531	    -28.07705921	    -42.62638927	     -7.64416748	     72.23751100	     81.42744010	    -34.53128185	    -29.11092078	    -25.34496912	     71.41221813	     88.19621418
      2.95000000	    -15.71259367	      0.91271518	      0.80491350	      0.94529799	      1.26049673	     -0.36754352	     25.11567576	     -3.02841548	      0.10001995	     24.22434360	      0.42279456	    -16.12570003	     -4.62619137	     -7.49999987	     29.88334631	     -4.33892776	     -1.80792498	     33.93137684	      0.59221425	    -15.24399177	     -5.41160727	     -7.49999987	     -3.56510814	     -3.58791760	     -6.54524915	    -31.20429130	    -43.05848616	     -6.65380213	     74.16398247	     81.30630207	    -36.86587986	    -29.37238143	    -25.10797126	     73.86464428	     88.57387451
      2.96666670	    -16.31345043	      0.75359305	      0.91473620	      0.95686338	      1.24466313	     -0.36902738	     26.12352802	     -2.99450993	     -0.62429107	     19.28430390	      0.33657460	    -17.51360906	     -2.34224035	     -7.49999987	     30.78726125	     -4.70005318	     -2.75555498	     28.53091912	      0.49795848	    -15.96471966	     -3.62263790	     -7.49999987	     -4.96754844	     -3.42139232	     -5.79252651	    -33.11762155	    -41.96305529	     -6.08719025	     74.32002594	     78.64127738	    -37.43901536	    -29.09561365	    -22.97130894	     74.11750240	     90.73500477
